# xmcd CD database file
#
# Track frame offsets:
#	150
#	22252
#	40628
#	64694
#	85678
#	109185
#	134132
#	156521
#	185672
#	206770
#
# Disc length: 3098 seconds
#
# Revision: 0
# Processed by: cddbd v1.5.2PL0 Copyright (c) Steve Scherf et al.
# Submitted via: CDex 1.51
#
DISCID=920c180a
DTITLE=Booboo Davis - Drew, Mississippi
DYEAR=2006
DGENRE=Blues
TTITLE0=Tell Me What To Do
TTITLE1=Let Me Love You
TTITLE2=Who Stole The Booty
TTITLE3=Drew Mississippi
TTITLE4=Go To Make It Right Now
TTITLE5=Tryin To Survive
TTITLE6=Got The Blues In My Heart
TTITLE7=Made Me Cry
TTITLE8=Walking Down A One Way Street
TTITLE9=Standing In The Cottonfields
EXTD=YEAR: 2006
EXTT0=
EXTT1=
EXTT2=
EXTT3=
EXTT4=
EXTT5=
EXTT6=
EXTT7=
EXTT8=
EXTT9=
PLAYORDER=
